<svg xmlns="http://www.w3.org/2000/svg" width="120" height="120" viewBox="0 0 60 60"><rect width="8" height="5" x="48" y="29" fill="#6d6d6d"/><path fill="#707070" d="M47,25H57a0,0,0,0,1,0,0v4a1,1,0,0,1-1,1H48a1,1,0,0,1-1-1V25A0,0,0,0,1,47,25Z"/><path fill="#fccd3a" d="M33,31a8,8,0,0,1,8,8V57a2,2,0,0,1-2,2H3a2,2,0,0,1-2-2V39a8,8,0,0,1,8-8Z"/><path fill="#e2b793" d="M27,26.7V31a6,6,0,0,1-6,6,6.009,6.009,0,0,1-6-6V26.7Z"/><rect width="6" height="28" x="9" y="31" fill="#f88a72"/><rect width="6" height="28" x="27" y="31" fill="#f88a72"/><rect width="14" height="20" x="45" y="6" fill="#fccd3a" rx="2"/><circle cx="52" cy="20" r="2" fill="#707070"/><circle cx="52" cy="12" r="2" fill="#707070"/><path fill="#eec7a4" d="M30,15v5a9,9,0,0,1-9,9h0a9,9,0,0,1-9-9V15Z"/><path fill="#fccd3a" d="M33,15H9A11.964,11.964,0,0,1,16,4.09a12.493,12.493,0,0,1,2-.71V2a1,1,0,0,1,1-1h4a1,1,0,0,1,1,1V3.38a11.59,11.59,0,0,1,2,.71A12,12,0,0,1,33,15Z"/><path fill="#373737" d="M3,60H39a3,3,0,0,0,3-3V39a9.01,9.01,0,0,0-9-9H28V27.129A9.965,9.965,0,0,0,31,20V16h3a1,1,0,0,0,0-2H10.049A10.925,10.925,0,0,1,17,4.759V9a1,1,0,0,0,2,0V2h4V9a1,1,0,0,0,2,0V4.753a10.963,10.963,0,0,1,6.374,6.58,1,1,0,0,0,1.887-.666A12.964,12.964,0,0,0,25,2.628V2a2,2,0,0,0-2-2H19a2,2,0,0,0-2,2v.628A12.95,12.95,0,0,0,8.049,14H8a1,1,0,0,0,0,2h3v4a9.965,9.965,0,0,0,3,7.129V30H9a9.01,9.01,0,0,0-9,9V57A3,3,0,0,0,3,60Zm13-2V35.89c.017.017.032.037.05.054A6.982,6.982,0,0,0,26,35.889V58ZM40,39V57a1,1,0,0,1-1,1H34V32.08A7.006,7.006,0,0,1,40,39ZM32,58H28V32h4ZM13,20V16H29v4a8,8,0,0,1-16,0Zm8,10a9.928,9.928,0,0,0,5-1.353V31a5.006,5.006,0,0,1-5,5,5.009,5.009,0,0,1-5-5V28.647A9.928,9.928,0,0,0,21,30Zm-7,2V58H10V32ZM2,39a7.006,7.006,0,0,1,6-6.92V58H3a1,1,0,0,1-1-1Z"/><path fill="#373737" d="M57,5H47a3,3,0,0,0-3,3V24a3,3,0,0,0,2,2.816V29a1.993,1.993,0,0,0,1,1.722v3.216L44.007,58.881a1,1,0,0,0,.874,1.112A.977.977,0,0,0,45,60a1,1,0,0,0,.992-.881L48.887,35H51V46a1,1,0,0,0,0,2V59a1,1,0,0,0,2,0V48a1,1,0,0,0,0-2V35h2.113l2.894,24.119A1,1,0,0,0,59,60a.977.977,0,0,0,.12-.007,1,1,0,0,0,.874-1.112L57,33.938V30.722A1.993,1.993,0,0,0,58,29V26.816A3,3,0,0,0,60,24V8A3,3,0,0,0,57,5ZM56,29H48V27h8Zm-1,4H49V31h6Zm3-9a1,1,0,0,1-1,1H47a1,1,0,0,1-1-1V8a1,1,0,0,1,1-1H57a1,1,0,0,1,1,1Z"/><path fill="#373737" d="M52,17a3,3,0,1,0,3,3A3,3,0,0,0,52,17Zm0,4a1,1,0,1,1,1-1A1,1,0,0,1,52,21Z"/><path fill="#373737" d="M52,9a3,3,0,1,0,3,3A3,3,0,0,0,52,9Zm0,4a1,1,0,1,1,1-1A1,1,0,0,1,52,13Z"/></svg>